<mxfile host="65bd71144e">
    <diagram name="Page-1" id="RnoSN_UY9LIXPHD4EfgN">
        <mxGraphModel dx="5504" dy="2332" grid="1" gridSize="10" guides="1" tooltips="1" connect="1" arrows="1" fold="1" page="1" pageScale="1" pageWidth="827" pageHeight="1169" math="0" shadow="0">
            <root>
                <mxCell id="0"/>
                <mxCell id="1" parent="0"/>
                <mxCell id="LVgz9WwHuPlELS2RrGbi-1" value="Controller" style="rounded=0;whiteSpace=wrap;html=1;fillColor=#d5e8d4;strokeColor=#82b366;" parent="1" vertex="1">
                    <mxGeometry x="240" y="240" width="480" height="240" as="geometry"/>
                </mxCell>
                <mxCell id="LVgz9WwHuPlELS2RrGbi-2" value="Decoder" style="rounded=0;whiteSpace=wrap;html=1;fillColor=#e1d5e7;strokeColor=#9673a6;" parent="1" vertex="1">
                    <mxGeometry x="-160" y="520" width="120" height="360" as="geometry"/>
                </mxCell>
                <mxCell id="LVgz9WwHuPlELS2RrGbi-3" value="Register file" style="rounded=0;whiteSpace=wrap;html=1;fillColor=#fff2cc;strokeColor=#d6b656;" parent="1" vertex="1">
                    <mxGeometry x="960" y="240" width="280" height="240" as="geometry"/>
                </mxCell>
                <mxCell id="LVgz9WwHuPlELS2RrGbi-4" value="CSR Register file" style="rounded=0;whiteSpace=wrap;html=1;fillColor=#f5f5f5;fontColor=#333333;strokeColor=#666666;" parent="1" vertex="1">
                    <mxGeometry x="960" y="-40" width="280" height="240" as="geometry"/>
                </mxCell>
                <mxCell id="LVgz9WwHuPlELS2RrGbi-5" value="ALU" style="rounded=0;whiteSpace=wrap;html=1;fillColor=#ffe6cc;strokeColor=#d79b00;" parent="1" vertex="1">
                    <mxGeometry x="960" y="520" width="280" height="360" as="geometry"/>
                </mxCell>
                <mxCell id="LVgz9WwHuPlELS2RrGbi-6" value="Program counter" style="rounded=0;whiteSpace=wrap;html=1;fillColor=#dae8fc;strokeColor=#6c8ebf;" parent="1" vertex="1">
                    <mxGeometry x="-160" y="240" width="200" height="240" as="geometry"/>
                </mxCell>
                <mxCell id="LVgz9WwHuPlELS2RrGbi-7" value="" style="endArrow=classic;html=1;rounded=0;entryX=0.017;entryY=0.444;entryDx=0;entryDy=0;entryPerimeter=0;" parent="1" edge="1">
                    <mxGeometry width="50" height="50" relative="1" as="geometry">
                        <mxPoint x="-240" y="680" as="sourcePoint"/>
                        <mxPoint x="-160.00000000000003" y="679.8400000000001" as="targetPoint"/>
                    </mxGeometry>
                </mxCell>
                <mxCell id="LVgz9WwHuPlELS2RrGbi-12" value="Instruction" style="edgeLabel;html=1;align=center;verticalAlign=middle;resizable=0;points=[];" parent="LVgz9WwHuPlELS2RrGbi-7" vertex="1" connectable="0">
                    <mxGeometry x="-0.7429" y="-1" relative="1" as="geometry">
                        <mxPoint x="-50" as="offset"/>
                    </mxGeometry>
                </mxCell>
                <mxCell id="LVgz9WwHuPlELS2RrGbi-9" value="" style="endArrow=classic;html=1;rounded=0;exitX=0;exitY=0.5;exitDx=0;exitDy=0;labelPosition=left;verticalLabelPosition=middle;align=left;verticalAlign=middle;" parent="1" source="LVgz9WwHuPlELS2RrGbi-6" edge="1">
                    <mxGeometry width="50" height="50" relative="1" as="geometry">
                        <mxPoint x="600" y="510" as="sourcePoint"/>
                        <mxPoint x="-240" y="360" as="targetPoint"/>
                    </mxGeometry>
                </mxCell>
                <mxCell id="LVgz9WwHuPlELS2RrGbi-10" value="Address" style="edgeLabel;html=1;align=center;verticalAlign=middle;resizable=0;points=[];" parent="LVgz9WwHuPlELS2RrGbi-9" vertex="1" connectable="0">
                    <mxGeometry x="0.3571" y="-1" relative="1" as="geometry">
                        <mxPoint x="-66" y="1" as="offset"/>
                    </mxGeometry>
                </mxCell>
                <mxCell id="LVgz9WwHuPlELS2RrGbi-13" value="" style="endArrow=classic;html=1;rounded=0;exitX=0;exitY=0.167;exitDx=0;exitDy=0;exitPerimeter=0;entryX=1.001;entryY=0.168;entryDx=0;entryDy=0;entryPerimeter=0;" parent="1" source="LVgz9WwHuPlELS2RrGbi-1" target="LVgz9WwHuPlELS2RrGbi-6" edge="1">
                    <mxGeometry width="50" height="50" relative="1" as="geometry">
                        <mxPoint x="60" y="450" as="sourcePoint"/>
                        <mxPoint x="110" y="400" as="targetPoint"/>
                    </mxGeometry>
                </mxCell>
                <mxCell id="LVgz9WwHuPlELS2RrGbi-15" value="PC_WREN" style="edgeLabel;html=1;align=center;verticalAlign=middle;resizable=0;points=[];" parent="LVgz9WwHuPlELS2RrGbi-13" vertex="1" connectable="0">
                    <mxGeometry x="0.0477" relative="1" as="geometry">
                        <mxPoint x="5" as="offset"/>
                    </mxGeometry>
                </mxCell>
                <mxCell id="LVgz9WwHuPlELS2RrGbi-14" value="" style="endArrow=classic;html=1;rounded=0;exitX=0;exitY=0.25;exitDx=0;exitDy=0;entryX=1;entryY=0.25;entryDx=0;entryDy=0;" parent="1" source="LVgz9WwHuPlELS2RrGbi-1" target="LVgz9WwHuPlELS2RrGbi-6" edge="1">
                    <mxGeometry width="50" height="50" relative="1" as="geometry">
                        <mxPoint x="-120" y="360" as="sourcePoint"/>
                        <mxPoint x="-70" y="310" as="targetPoint"/>
                    </mxGeometry>
                </mxCell>
                <mxCell id="LVgz9WwHuPlELS2RrGbi-16" value="PC_EN" style="edgeLabel;html=1;align=center;verticalAlign=middle;resizable=0;points=[];" parent="LVgz9WwHuPlELS2RrGbi-14" vertex="1" connectable="0">
                    <mxGeometry x="0.09" y="-1" relative="1" as="geometry">
                        <mxPoint x="9" as="offset"/>
                    </mxGeometry>
                </mxCell>
                <mxCell id="LVgz9WwHuPlELS2RrGbi-18" value="" style="endArrow=classic;html=1;rounded=0;entryX=0;entryY=0.5;entryDx=0;entryDy=0;" parent="1" target="LVgz9WwHuPlELS2RrGbi-1" edge="1">
                    <mxGeometry width="50" height="50" relative="1" as="geometry">
                        <mxPoint x="-200" y="360" as="sourcePoint"/>
                        <mxPoint x="-150" y="450" as="targetPoint"/>
                        <Array as="points">
                            <mxPoint x="-200" y="500"/>
                            <mxPoint x="160" y="500"/>
                            <mxPoint x="160" y="360"/>
                        </Array>
                    </mxGeometry>
                </mxCell>
                <mxCell id="LVgz9WwHuPlELS2RrGbi-19" value="Address (32b)" style="edgeLabel;html=1;align=center;verticalAlign=middle;resizable=0;points=[];" parent="LVgz9WwHuPlELS2RrGbi-18" vertex="1" connectable="0">
                    <mxGeometry x="0.8517" y="1" relative="1" as="geometry">
                        <mxPoint x="-67" y="1" as="offset"/>
                    </mxGeometry>
                </mxCell>
                <mxCell id="LVgz9WwHuPlELS2RrGbi-20" value="" style="endArrow=classic;html=1;rounded=0;exitX=0.999;exitY=0.417;exitDx=0;exitDy=0;exitPerimeter=0;" parent="1" source="LVgz9WwHuPlELS2RrGbi-6" edge="1">
                    <mxGeometry width="50" height="50" relative="1" as="geometry">
                        <mxPoint x="190" y="430" as="sourcePoint"/>
                        <mxPoint x="240" y="340" as="targetPoint"/>
                    </mxGeometry>
                </mxCell>
                <mxCell id="LVgz9WwHuPlELS2RrGbi-22" value="PC_OVERFLOW" style="edgeLabel;html=1;align=center;verticalAlign=middle;resizable=0;points=[];" parent="LVgz9WwHuPlELS2RrGbi-20" vertex="1" connectable="0">
                    <mxGeometry x="-0.1921" y="-1" relative="1" as="geometry">
                        <mxPoint x="19" as="offset"/>
                    </mxGeometry>
                </mxCell>
                <mxCell id="LVgz9WwHuPlELS2RrGbi-23" value="" style="endArrow=classic;html=1;rounded=0;exitX=0.001;exitY=0.079;exitDx=0;exitDy=0;exitPerimeter=0;entryX=1.001;entryY=0.085;entryDx=0;entryDy=0;entryPerimeter=0;" parent="1" source="LVgz9WwHuPlELS2RrGbi-1" target="LVgz9WwHuPlELS2RrGbi-6" edge="1">
                    <mxGeometry width="50" height="50" relative="1" as="geometry">
                        <mxPoint x="90" y="380" as="sourcePoint"/>
                        <mxPoint x="140" y="330" as="targetPoint"/>
                        <Array as="points">
                            <mxPoint x="130" y="260"/>
                        </Array>
                    </mxGeometry>
                </mxCell>
                <mxCell id="LVgz9WwHuPlELS2RrGbi-24" value="PC_LOAD (32b)" style="edgeLabel;html=1;align=center;verticalAlign=middle;resizable=0;points=[];" parent="LVgz9WwHuPlELS2RrGbi-23" vertex="1" connectable="0">
                    <mxGeometry x="-0.0028" relative="1" as="geometry">
                        <mxPoint as="offset"/>
                    </mxGeometry>
                </mxCell>
                <mxCell id="LVgz9WwHuPlELS2RrGbi-25" value="" style="endArrow=classic;html=1;rounded=0;entryX=0.25;entryY=1;entryDx=0;entryDy=0;fillColor=#1ba1e2;strokeColor=#006EAF;" parent="1" edge="1">
                    <mxGeometry width="50" height="50" relative="1" as="geometry">
                        <mxPoint x="-40" y="610" as="sourcePoint"/>
                        <mxPoint x="280" y="480" as="targetPoint"/>
                        <Array as="points">
                            <mxPoint x="280" y="610"/>
                        </Array>
                    </mxGeometry>
                </mxCell>
                <mxCell id="LVgz9WwHuPlELS2RrGbi-31" value="RS1 (5b)" style="edgeLabel;html=1;align=center;verticalAlign=middle;resizable=0;points=[];" parent="LVgz9WwHuPlELS2RrGbi-25" vertex="1" connectable="0">
                    <mxGeometry x="-0.0055" y="-1" relative="1" as="geometry">
                        <mxPoint x="6" as="offset"/>
                    </mxGeometry>
                </mxCell>
                <mxCell id="LVgz9WwHuPlELS2RrGbi-26" value="" style="endArrow=classic;html=1;rounded=0;fillColor=#1ba1e2;strokeColor=#006EAF;" parent="1" edge="1">
                    <mxGeometry width="50" height="50" relative="1" as="geometry">
                        <mxPoint x="-40" y="630" as="sourcePoint"/>
                        <mxPoint x="299.76" y="480" as="targetPoint"/>
                        <Array as="points">
                            <mxPoint x="299.76" y="630"/>
                        </Array>
                    </mxGeometry>
                </mxCell>
                <mxCell id="LVgz9WwHuPlELS2RrGbi-32" value="RS2 (5b)" style="edgeLabel;html=1;align=center;verticalAlign=middle;resizable=0;points=[];" parent="LVgz9WwHuPlELS2RrGbi-26" vertex="1" connectable="0">
                    <mxGeometry x="-0.0979" y="1" relative="1" as="geometry">
                        <mxPoint x="9" as="offset"/>
                    </mxGeometry>
                </mxCell>
                <mxCell id="LVgz9WwHuPlELS2RrGbi-27" value="" style="endArrow=classic;html=1;rounded=0;exitX=1;exitY=0.359;exitDx=0;exitDy=0;exitPerimeter=0;entryX=0.333;entryY=1.001;entryDx=0;entryDy=0;entryPerimeter=0;fillColor=#1ba1e2;strokeColor=#006EAF;" parent="1" source="LVgz9WwHuPlELS2RrGbi-2" edge="1">
                    <mxGeometry width="50" height="50" relative="1" as="geometry">
                        <mxPoint x="-119.99999999999986" y="649.0000000000002" as="sourcePoint"/>
                        <mxPoint x="319.2400000000001" y="480.0000000000002" as="targetPoint"/>
                        <Array as="points">
                            <mxPoint x="319.4" y="649.76"/>
                        </Array>
                    </mxGeometry>
                </mxCell>
                <mxCell id="LVgz9WwHuPlELS2RrGbi-33" value="RD (5b)" style="edgeLabel;html=1;align=center;verticalAlign=middle;resizable=0;points=[];" parent="LVgz9WwHuPlELS2RrGbi-27" vertex="1" connectable="0">
                    <mxGeometry x="-0.2011" relative="1" as="geometry">
                        <mxPoint x="19" as="offset"/>
                    </mxGeometry>
                </mxCell>
                <mxCell id="LVgz9WwHuPlELS2RrGbi-28" value="" style="endArrow=classic;html=1;rounded=0;entryX=0.5;entryY=1;entryDx=0;entryDy=0;fillColor=#1ba1e2;strokeColor=#006EAF;" parent="1" edge="1">
                    <mxGeometry width="50" height="50" relative="1" as="geometry">
                        <mxPoint x="-40" y="800" as="sourcePoint"/>
                        <mxPoint x="360" y="479.99999999999955" as="targetPoint"/>
                        <Array as="points">
                            <mxPoint x="360" y="800"/>
                        </Array>
                    </mxGeometry>
                </mxCell>
                <mxCell id="LVgz9WwHuPlELS2RrGbi-34" value="Immediate (32b)" style="edgeLabel;html=1;align=center;verticalAlign=middle;resizable=0;points=[];" parent="LVgz9WwHuPlELS2RrGbi-28" vertex="1" connectable="0">
                    <mxGeometry x="-0.3698" relative="1" as="geometry">
                        <mxPoint x="3" as="offset"/>
                    </mxGeometry>
                </mxCell>
                <mxCell id="LVgz9WwHuPlELS2RrGbi-29" value="" style="endArrow=classic;html=1;rounded=0;exitX=1.002;exitY=0.889;exitDx=0;exitDy=0;exitPerimeter=0;fillColor=#1ba1e2;strokeColor=#006EAF;" parent="1" source="LVgz9WwHuPlELS2RrGbi-2" edge="1">
                    <mxGeometry width="50" height="50" relative="1" as="geometry">
                        <mxPoint x="140" y="790" as="sourcePoint"/>
                        <mxPoint x="400" y="480" as="targetPoint"/>
                        <Array as="points">
                            <mxPoint x="400" y="840"/>
                        </Array>
                    </mxGeometry>
                </mxCell>
                <mxCell id="LVgz9WwHuPlELS2RrGbi-35" value="Opcode (type)" style="edgeLabel;html=1;align=center;verticalAlign=middle;resizable=0;points=[];" parent="LVgz9WwHuPlELS2RrGbi-29" vertex="1" connectable="0">
                    <mxGeometry x="-0.4247" y="1" relative="1" as="geometry">
                        <mxPoint as="offset"/>
                    </mxGeometry>
                </mxCell>
                <mxCell id="LVgz9WwHuPlELS2RrGbi-36" value="" style="endArrow=classic;html=1;rounded=0;exitX=1.003;exitY=0.944;exitDx=0;exitDy=0;exitPerimeter=0;entryX=0.377;entryY=0.998;entryDx=0;entryDy=0;entryPerimeter=0;fillColor=#6a00ff;strokeColor=#3700CC;" parent="1" source="LVgz9WwHuPlELS2RrGbi-2" target="LVgz9WwHuPlELS2RrGbi-1" edge="1">
                    <mxGeometry width="50" height="50" relative="1" as="geometry">
                        <mxPoint x="280" y="710" as="sourcePoint"/>
                        <mxPoint x="330" y="660" as="targetPoint"/>
                        <Array as="points">
                            <mxPoint x="421" y="860"/>
                        </Array>
                    </mxGeometry>
                </mxCell>
                <mxCell id="LVgz9WwHuPlELS2RrGbi-38" value="Illegal" style="edgeLabel;html=1;align=center;verticalAlign=middle;resizable=0;points=[];" parent="LVgz9WwHuPlELS2RrGbi-36" vertex="1" connectable="0">
                    <mxGeometry x="-0.4812" relative="1" as="geometry">
                        <mxPoint x="11" as="offset"/>
                    </mxGeometry>
                </mxCell>
                <mxCell id="LVgz9WwHuPlELS2RrGbi-39" value="" style="endArrow=classic;html=1;rounded=0;exitX=0.5;exitY=1;exitDx=0;exitDy=0;fillColor=#e51400;strokeColor=#B20000;" parent="1" source="LVgz9WwHuPlELS2RrGbi-1" edge="1">
                    <mxGeometry width="50" height="50" relative="1" as="geometry">
                        <mxPoint x="650" y="720" as="sourcePoint"/>
                        <mxPoint x="480" y="1000" as="targetPoint"/>
                    </mxGeometry>
                </mxCell>
                <mxCell id="LVgz9WwHuPlELS2RrGbi-46" value="address (32b&lt;span style=&quot;background-color: light-dark(#ffffff, var(--ge-dark-color, #121212)); color: light-dark(rgb(0, 0, 0), rgb(255, 255, 255));&quot;&gt;)&lt;/span&gt;" style="edgeLabel;html=1;align=center;verticalAlign=middle;resizable=0;points=[];" parent="LVgz9WwHuPlELS2RrGbi-39" vertex="1" connectable="0">
                    <mxGeometry x="0.7673" relative="1" as="geometry">
                        <mxPoint x="-30" y="70" as="offset"/>
                    </mxGeometry>
                </mxCell>
                <mxCell id="LVgz9WwHuPlELS2RrGbi-41" value="" style="endArrow=classic;html=1;rounded=0;exitX=0.542;exitY=1;exitDx=0;exitDy=0;exitPerimeter=0;fillColor=#e51400;strokeColor=#B20000;" parent="1" source="LVgz9WwHuPlELS2RrGbi-1" edge="1">
                    <mxGeometry width="50" height="50" relative="1" as="geometry">
                        <mxPoint x="660" y="740" as="sourcePoint"/>
                        <mxPoint x="500" y="1020" as="targetPoint"/>
                    </mxGeometry>
                </mxCell>
                <mxCell id="LVgz9WwHuPlELS2RrGbi-49" value="byte enable (4b)" style="edgeLabel;html=1;align=center;verticalAlign=middle;resizable=0;points=[];" parent="LVgz9WwHuPlELS2RrGbi-41" vertex="1" connectable="0">
                    <mxGeometry x="0.85" y="1" relative="1" as="geometry">
                        <mxPoint x="-41" y="50" as="offset"/>
                    </mxGeometry>
                </mxCell>
                <mxCell id="LVgz9WwHuPlELS2RrGbi-42" value="" style="endArrow=classic;html=1;rounded=0;exitX=0.542;exitY=1;exitDx=0;exitDy=0;exitPerimeter=0;fillColor=#e51400;strokeColor=#B20000;" parent="1" edge="1">
                    <mxGeometry width="50" height="50" relative="1" as="geometry">
                        <mxPoint x="520" y="480" as="sourcePoint"/>
                        <mxPoint x="520" y="1040" as="targetPoint"/>
                    </mxGeometry>
                </mxCell>
                <mxCell id="LVgz9WwHuPlELS2RrGbi-51" value="request" style="edgeLabel;html=1;align=center;verticalAlign=middle;resizable=0;points=[];" parent="LVgz9WwHuPlELS2RrGbi-42" vertex="1" connectable="0">
                    <mxGeometry x="0.9777" relative="1" as="geometry">
                        <mxPoint x="20" y="16" as="offset"/>
                    </mxGeometry>
                </mxCell>
                <mxCell id="LVgz9WwHuPlELS2RrGbi-43" value="" style="endArrow=classic;html=1;rounded=0;exitX=0.542;exitY=1;exitDx=0;exitDy=0;exitPerimeter=0;fillColor=#e51400;strokeColor=#B20000;" parent="1" edge="1">
                    <mxGeometry width="50" height="50" relative="1" as="geometry">
                        <mxPoint x="540" y="480" as="sourcePoint"/>
                        <mxPoint x="540" y="1020" as="targetPoint"/>
                    </mxGeometry>
                </mxCell>
                <mxCell id="LVgz9WwHuPlELS2RrGbi-50" value="R/W" style="edgeLabel;html=1;align=center;verticalAlign=middle;resizable=0;points=[];" parent="LVgz9WwHuPlELS2RrGbi-43" vertex="1" connectable="0">
                    <mxGeometry x="0.9807" relative="1" as="geometry">
                        <mxPoint x="10" y="15" as="offset"/>
                    </mxGeometry>
                </mxCell>
                <mxCell id="LVgz9WwHuPlELS2RrGbi-44" value="" style="endArrow=classic;html=1;rounded=0;fillColor=#6a00ff;strokeColor=#3700CC;" parent="1" edge="1">
                    <mxGeometry width="50" height="50" relative="1" as="geometry">
                        <mxPoint x="560" y="1000" as="sourcePoint"/>
                        <mxPoint x="560" y="480" as="targetPoint"/>
                    </mxGeometry>
                </mxCell>
                <mxCell id="LVgz9WwHuPlELS2RrGbi-47" value="addres_error" style="edgeLabel;html=1;align=center;verticalAlign=middle;resizable=0;points=[];" parent="LVgz9WwHuPlELS2RrGbi-44" vertex="1" connectable="0">
                    <mxGeometry x="-0.911" y="-2" relative="1" as="geometry">
                        <mxPoint x="28" y="33" as="offset"/>
                    </mxGeometry>
                </mxCell>
                <mxCell id="LVgz9WwHuPlELS2RrGbi-52" value="1&amp;nbsp; &amp;nbsp; &amp;nbsp; &amp;nbsp; 0" style="shape=trapezoid;perimeter=trapezoidPerimeter;whiteSpace=wrap;html=1;fixedSize=1;rotation=-180;textDirection=ltr;flipV=0;flipH=1;" parent="1" vertex="1">
                    <mxGeometry x="740" y="510" width="80" height="20" as="geometry"/>
                </mxCell>
                <mxCell id="LVgz9WwHuPlELS2RrGbi-53" value="1&amp;nbsp; &amp;nbsp; &amp;nbsp; &amp;nbsp; 0" style="shape=trapezoid;perimeter=trapezoidPerimeter;whiteSpace=wrap;html=1;fixedSize=1;rotation=-180;" parent="1" vertex="1">
                    <mxGeometry x="860" y="510" width="80" height="20" as="geometry"/>
                </mxCell>
                <mxCell id="LVgz9WwHuPlELS2RrGbi-54" value="" style="endArrow=classic;html=1;rounded=0;exitX=0.5;exitY=0;exitDx=0;exitDy=0;entryX=0;entryY=0.25;entryDx=0;entryDy=0;fillColor=#fa6800;strokeColor=#C73500;dashed=1;" parent="1" source="LVgz9WwHuPlELS2RrGbi-53" target="LVgz9WwHuPlELS2RrGbi-5" edge="1">
                    <mxGeometry width="50" height="50" relative="1" as="geometry">
                        <mxPoint x="830" y="600" as="sourcePoint"/>
                        <mxPoint x="880" y="550" as="targetPoint"/>
                        <Array as="points">
                            <mxPoint x="900" y="610"/>
                        </Array>
                    </mxGeometry>
                </mxCell>
                <mxCell id="LVgz9WwHuPlELS2RrGbi-56" value="ARG1" style="edgeLabel;html=1;align=center;verticalAlign=middle;resizable=0;points=[];" parent="LVgz9WwHuPlELS2RrGbi-54" vertex="1" connectable="0">
                    <mxGeometry x="0.3869" relative="1" as="geometry">
                        <mxPoint x="3" as="offset"/>
                    </mxGeometry>
                </mxCell>
                <mxCell id="LVgz9WwHuPlELS2RrGbi-55" value="" style="endArrow=classic;html=1;rounded=0;exitX=0.5;exitY=0;exitDx=0;exitDy=0;entryX=0;entryY=0.305;entryDx=0;entryDy=0;entryPerimeter=0;fillColor=#fa6800;strokeColor=#C73500;dashed=1;" parent="1" source="LVgz9WwHuPlELS2RrGbi-52" target="LVgz9WwHuPlELS2RrGbi-5" edge="1">
                    <mxGeometry width="50" height="50" relative="1" as="geometry">
                        <mxPoint x="800" y="580" as="sourcePoint"/>
                        <mxPoint x="850" y="530" as="targetPoint"/>
                        <Array as="points">
                            <mxPoint x="780" y="630"/>
                        </Array>
                    </mxGeometry>
                </mxCell>
                <mxCell id="LVgz9WwHuPlELS2RrGbi-57" value="ARG2" style="edgeLabel;html=1;align=center;verticalAlign=middle;resizable=0;points=[];" parent="LVgz9WwHuPlELS2RrGbi-55" vertex="1" connectable="0">
                    <mxGeometry x="0.7493" relative="1" as="geometry">
                        <mxPoint x="-5" as="offset"/>
                    </mxGeometry>
                </mxCell>
                <mxCell id="LVgz9WwHuPlELS2RrGbi-58" value="" style="endArrow=classic;html=1;rounded=0;entryX=0.75;entryY=1;entryDx=0;entryDy=0;fillColor=#fa6800;strokeColor=#C73500;dashed=1;" parent="1" target="LVgz9WwHuPlELS2RrGbi-52" edge="1">
                    <mxGeometry width="50" height="50" relative="1" as="geometry">
                        <mxPoint x="960" y="280" as="sourcePoint"/>
                        <mxPoint x="1010" y="230" as="targetPoint"/>
                        <Array as="points">
                            <mxPoint x="760" y="280"/>
                        </Array>
                    </mxGeometry>
                </mxCell>
                <mxCell id="LVgz9WwHuPlELS2RrGbi-59" value="" style="endArrow=classic;html=1;rounded=0;exitX=0;exitY=0.75;exitDx=0;exitDy=0;entryX=0.75;entryY=1;entryDx=0;entryDy=0;fillColor=#fa6800;strokeColor=#C73500;dashed=1;" parent="1" source="LVgz9WwHuPlELS2RrGbi-3" target="LVgz9WwHuPlELS2RrGbi-53" edge="1">
                    <mxGeometry width="50" height="50" relative="1" as="geometry">
                        <mxPoint x="870" y="380" as="sourcePoint"/>
                        <mxPoint x="920" y="330" as="targetPoint"/>
                        <Array as="points">
                            <mxPoint x="880" y="420"/>
                        </Array>
                    </mxGeometry>
                </mxCell>
                <mxCell id="LVgz9WwHuPlELS2RrGbi-60" value="" style="endArrow=classic;html=1;rounded=0;exitX=1;exitY=0.25;exitDx=0;exitDy=0;entryX=0.25;entryY=1;entryDx=0;entryDy=0;fillColor=#fa6800;strokeColor=#C73500;dashed=1;" parent="1" source="LVgz9WwHuPlELS2RrGbi-1" target="LVgz9WwHuPlELS2RrGbi-53" edge="1">
                    <mxGeometry width="50" height="50" relative="1" as="geometry">
                        <mxPoint x="870" y="380" as="sourcePoint"/>
                        <mxPoint x="920" y="330" as="targetPoint"/>
                        <Array as="points">
                            <mxPoint x="920" y="300"/>
                            <mxPoint x="920" y="430"/>
                        </Array>
                    </mxGeometry>
                </mxCell>
                <mxCell id="LVgz9WwHuPlELS2RrGbi-61" value="" style="endArrow=classic;html=1;rounded=0;exitX=0;exitY=0.25;exitDx=0;exitDy=0;entryX=0.25;entryY=1;entryDx=0;entryDy=0;fillColor=#fa6800;strokeColor=#C73500;dashed=1;" parent="1" source="LVgz9WwHuPlELS2RrGbi-4" target="LVgz9WwHuPlELS2RrGbi-52" edge="1">
                    <mxGeometry width="50" height="50" relative="1" as="geometry">
                        <mxPoint x="820" y="50" as="sourcePoint"/>
                        <mxPoint x="870" as="targetPoint"/>
                        <Array as="points">
                            <mxPoint x="800" y="20"/>
                        </Array>
                    </mxGeometry>
                </mxCell>
                <mxCell id="LVgz9WwHuPlELS2RrGbi-62" value="" style="endArrow=classic;html=1;rounded=0;exitX=1;exitY=0.916;exitDx=0;exitDy=0;exitPerimeter=0;entryX=1;entryY=0.5;entryDx=0;entryDy=0;" parent="1" source="LVgz9WwHuPlELS2RrGbi-1" target="LVgz9WwHuPlELS2RrGbi-52" edge="1">
                    <mxGeometry width="50" height="50" relative="1" as="geometry">
                        <mxPoint x="730" y="450" as="sourcePoint"/>
                        <mxPoint x="780" y="400" as="targetPoint"/>
                        <Array as="points">
                            <mxPoint x="730" y="460"/>
                            <mxPoint x="730" y="520"/>
                        </Array>
                    </mxGeometry>
                </mxCell>
                <mxCell id="LVgz9WwHuPlELS2RrGbi-63" value="" style="endArrow=classic;html=1;rounded=0;entryX=1;entryY=0.5;entryDx=0;entryDy=0;" parent="1" target="LVgz9WwHuPlELS2RrGbi-53" edge="1">
                    <mxGeometry width="50" height="50" relative="1" as="geometry">
                        <mxPoint x="720" y="450" as="sourcePoint"/>
                        <mxPoint x="770" y="400" as="targetPoint"/>
                        <Array as="points">
                            <mxPoint x="850" y="450"/>
                            <mxPoint x="850" y="520"/>
                        </Array>
                    </mxGeometry>
                </mxCell>
                <mxCell id="LVgz9WwHuPlELS2RrGbi-64" value="0&amp;nbsp; &amp;nbsp; &amp;nbsp; &amp;nbsp; 1" style="shape=trapezoid;perimeter=trapezoidPerimeter;whiteSpace=wrap;html=1;fixedSize=1;rotation=0;" parent="1" vertex="1">
                    <mxGeometry x="1320" y="520" width="80" height="20" as="geometry"/>
                </mxCell>
                <mxCell id="LVgz9WwHuPlELS2RrGbi-65" value="" style="endArrow=classic;html=1;rounded=0;exitX=1;exitY=0.5;exitDx=0;exitDy=0;entryX=0.25;entryY=1;entryDx=0;entryDy=0;fillColor=#fa6800;strokeColor=#C73500;dashed=1;" parent="1" source="LVgz9WwHuPlELS2RrGbi-5" target="LVgz9WwHuPlELS2RrGbi-64" edge="1">
                    <mxGeometry width="50" height="50" relative="1" as="geometry">
                        <mxPoint x="1241" y="720" as="sourcePoint"/>
                        <mxPoint x="1291" y="670" as="targetPoint"/>
                        <Array as="points">
                            <mxPoint x="1340" y="700"/>
                        </Array>
                    </mxGeometry>
                </mxCell>
                <mxCell id="LVgz9WwHuPlELS2RrGbi-66" value="" style="endArrow=classic;html=1;rounded=0;entryX=0.75;entryY=1;entryDx=0;entryDy=0;" parent="1" target="LVgz9WwHuPlELS2RrGbi-64" edge="1">
                    <mxGeometry width="50" height="50" relative="1" as="geometry">
                        <mxPoint x="1380" y="1000" as="sourcePoint"/>
                        <mxPoint x="1430" y="950" as="targetPoint"/>
                    </mxGeometry>
                </mxCell>
                <mxCell id="LVgz9WwHuPlELS2RrGbi-67" value="data in" style="edgeLabel;html=1;align=center;verticalAlign=middle;resizable=0;points=[];" parent="LVgz9WwHuPlELS2RrGbi-66" vertex="1" connectable="0">
                    <mxGeometry x="-0.9357" y="-1" relative="1" as="geometry">
                        <mxPoint y="35" as="offset"/>
                    </mxGeometry>
                </mxCell>
                <mxCell id="LVgz9WwHuPlELS2RrGbi-68" value="1&amp;nbsp; &amp;nbsp; &amp;nbsp; &amp;nbsp; 0" style="shape=trapezoid;perimeter=trapezoidPerimeter;whiteSpace=wrap;html=1;fixedSize=1;rotation=-180;" parent="1" vertex="1">
                    <mxGeometry x="720" y="840" width="80" height="20" as="geometry"/>
                </mxCell>
                <mxCell id="LVgz9WwHuPlELS2RrGbi-71" style="edgeStyle=orthogonalEdgeStyle;rounded=0;orthogonalLoop=1;jettySize=auto;html=1;entryX=1;entryY=0.5;entryDx=0;entryDy=0;" parent="1" source="LVgz9WwHuPlELS2RrGbi-69" target="LVgz9WwHuPlELS2RrGbi-68" edge="1">
                    <mxGeometry relative="1" as="geometry"/>
                </mxCell>
                <mxCell id="LVgz9WwHuPlELS2RrGbi-69" value="" style="shape=or;whiteSpace=wrap;html=1;" parent="1" vertex="1">
                    <mxGeometry x="680" y="835" width="20" height="30" as="geometry"/>
                </mxCell>
                <mxCell id="LVgz9WwHuPlELS2RrGbi-70" value="" style="shape=or;whiteSpace=wrap;html=1;rotation=-180;" parent="1" vertex="1">
                    <mxGeometry x="1420" y="515" width="20" height="30" as="geometry"/>
                </mxCell>
                <mxCell id="LVgz9WwHuPlELS2RrGbi-72" style="edgeStyle=orthogonalEdgeStyle;rounded=0;orthogonalLoop=1;jettySize=auto;html=1;exitX=1;exitY=0.5;exitDx=0;exitDy=0;exitPerimeter=0;entryX=1;entryY=0.5;entryDx=0;entryDy=0;" parent="1" source="LVgz9WwHuPlELS2RrGbi-70" target="LVgz9WwHuPlELS2RrGbi-64" edge="1">
                    <mxGeometry relative="1" as="geometry"/>
                </mxCell>
                <mxCell id="LVgz9WwHuPlELS2RrGbi-75" value="" style="endArrow=classic;html=1;rounded=0;entryX=0.25;entryY=1;entryDx=0;entryDy=0;fillColor=#fa6800;strokeColor=#C73500;dashed=1;" parent="1" target="LVgz9WwHuPlELS2RrGbi-68" edge="1">
                    <mxGeometry width="50" height="50" relative="1" as="geometry">
                        <mxPoint x="780" y="630" as="sourcePoint"/>
                        <mxPoint x="820" y="740" as="targetPoint"/>
                    </mxGeometry>
                </mxCell>
                <mxCell id="LVgz9WwHuPlELS2RrGbi-76" value="" style="endArrow=classic;html=1;rounded=0;" parent="1" edge="1">
                    <mxGeometry width="50" height="50" relative="1" as="geometry">
                        <mxPoint x="740" y="800" as="sourcePoint"/>
                        <mxPoint x="741" y="840" as="targetPoint"/>
                    </mxGeometry>
                </mxCell>
                <mxCell id="LVgz9WwHuPlELS2RrGbi-77" value="0" style="edgeLabel;html=1;align=center;verticalAlign=middle;resizable=0;points=[];" parent="LVgz9WwHuPlELS2RrGbi-76" vertex="1" connectable="0">
                    <mxGeometry x="-0.5452" y="1" relative="1" as="geometry">
                        <mxPoint x="-1" y="-20" as="offset"/>
                    </mxGeometry>
                </mxCell>
                <mxCell id="LVgz9WwHuPlELS2RrGbi-78" value="" style="endArrow=classic;html=1;rounded=0;entryX=-0.033;entryY=0.828;entryDx=0;entryDy=0;entryPerimeter=0;startArrow=oval;startFill=1;fillColor=#e51400;strokeColor=#B20000;" parent="1" target="LVgz9WwHuPlELS2RrGbi-69" edge="1">
                    <mxGeometry width="50" height="50" relative="1" as="geometry">
                        <mxPoint x="520" y="860" as="sourcePoint"/>
                        <mxPoint x="710" y="880" as="targetPoint"/>
                    </mxGeometry>
                </mxCell>
                <mxCell id="LVgz9WwHuPlELS2RrGbi-79" value="" style="endArrow=classic;html=1;rounded=0;entryX=0;entryY=0.167;entryDx=0;entryDy=0;entryPerimeter=0;startArrow=oval;startFill=1;fillColor=#e51400;strokeColor=#B20000;" parent="1" target="LVgz9WwHuPlELS2RrGbi-69" edge="1">
                    <mxGeometry width="50" height="50" relative="1" as="geometry">
                        <mxPoint x="540" y="840" as="sourcePoint"/>
                        <mxPoint x="590" y="790" as="targetPoint"/>
                    </mxGeometry>
                </mxCell>
                <mxCell id="LVgz9WwHuPlELS2RrGbi-80" value="" style="endArrow=classic;html=1;rounded=0;entryX=0.011;entryY=0.826;entryDx=0;entryDy=0;entryPerimeter=0;fillColor=#e51400;strokeColor=#B20000;" parent="1" target="LVgz9WwHuPlELS2RrGbi-70" edge="1">
                    <mxGeometry width="50" height="50" relative="1" as="geometry">
                        <mxPoint x="1520" y="520" as="sourcePoint"/>
                        <mxPoint x="1520" y="510" as="targetPoint"/>
                    </mxGeometry>
                </mxCell>
                <mxCell id="LVgz9WwHuPlELS2RrGbi-83" value="request" style="edgeLabel;html=1;align=center;verticalAlign=middle;resizable=0;points=[];" parent="LVgz9WwHuPlELS2RrGbi-80" vertex="1" connectable="0">
                    <mxGeometry x="-0.557" y="-1" relative="1" as="geometry">
                        <mxPoint x="48" y="1" as="offset"/>
                    </mxGeometry>
                </mxCell>
                <mxCell id="LVgz9WwHuPlELS2RrGbi-81" value="" style="endArrow=classic;html=1;rounded=0;entryX=0.011;entryY=0.826;entryDx=0;entryDy=0;entryPerimeter=0;fillColor=#e51400;strokeColor=#B20000;" parent="1" edge="1">
                    <mxGeometry width="50" height="50" relative="1" as="geometry">
                        <mxPoint x="1520" y="540" as="sourcePoint"/>
                        <mxPoint x="1440" y="540" as="targetPoint"/>
                    </mxGeometry>
                </mxCell>
                <mxCell id="LVgz9WwHuPlELS2RrGbi-84" value="R/W" style="edgeLabel;html=1;align=center;verticalAlign=middle;resizable=0;points=[];" parent="LVgz9WwHuPlELS2RrGbi-81" vertex="1" connectable="0">
                    <mxGeometry x="-0.625" y="3" relative="1" as="geometry">
                        <mxPoint x="35" y="-3" as="offset"/>
                    </mxGeometry>
                </mxCell>
                <mxCell id="LVgz9WwHuPlELS2RrGbi-82" value="" style="endArrow=oval;html=1;rounded=0;entryX=0.011;entryY=0.826;entryDx=0;entryDy=0;entryPerimeter=0;endFill=1;startArrow=none;startFill=0;fillColor=#e51400;strokeColor=#B20000;" parent="1" edge="1">
                    <mxGeometry width="50" height="50" relative="1" as="geometry">
                        <mxPoint x="1450" y="540" as="sourcePoint"/>
                        <mxPoint x="1440" y="540" as="targetPoint"/>
                    </mxGeometry>
                </mxCell>
                <mxCell id="LVgz9WwHuPlELS2RrGbi-85" value="" style="endArrow=classic;html=1;rounded=0;exitX=0.5;exitY=0;exitDx=0;exitDy=0;entryX=1;entryY=0.5;entryDx=0;entryDy=0;fillColor=#fa6800;strokeColor=#C73500;dashed=1;" parent="1" source="LVgz9WwHuPlELS2RrGbi-64" target="LVgz9WwHuPlELS2RrGbi-4" edge="1">
                    <mxGeometry width="50" height="50" relative="1" as="geometry">
                        <mxPoint x="1220" y="420" as="sourcePoint"/>
                        <mxPoint x="1270" y="370" as="targetPoint"/>
                        <Array as="points">
                            <mxPoint x="1360" y="80"/>
                        </Array>
                    </mxGeometry>
                </mxCell>
                <mxCell id="LVgz9WwHuPlELS2RrGbi-86" value="" style="endArrow=classic;html=1;rounded=0;entryX=1;entryY=0.5;entryDx=0;entryDy=0;startArrow=oval;startFill=1;fillColor=#fa6800;strokeColor=#C73500;dashed=1;" parent="1" target="LVgz9WwHuPlELS2RrGbi-3" edge="1">
                    <mxGeometry width="50" height="50" relative="1" as="geometry">
                        <mxPoint x="1360" y="360" as="sourcePoint"/>
                        <mxPoint x="1270" y="290" as="targetPoint"/>
                    </mxGeometry>
                </mxCell>
                <mxCell id="LVgz9WwHuPlELS2RrGbi-87" value="" style="endArrow=classic;html=1;rounded=0;exitX=1.001;exitY=0.333;exitDx=0;exitDy=0;exitPerimeter=0;entryX=0;entryY=0.333;entryDx=0;entryDy=0;entryPerimeter=0;fillColor=#6d8764;strokeColor=#3A5431;" parent="1" source="LVgz9WwHuPlELS2RrGbi-1" target="LVgz9WwHuPlELS2RrGbi-3" edge="1">
                    <mxGeometry width="50" height="50" relative="1" as="geometry">
                        <mxPoint x="750" y="390" as="sourcePoint"/>
                        <mxPoint x="800" y="340" as="targetPoint"/>
                    </mxGeometry>
                </mxCell>
                <mxCell id="LVgz9WwHuPlELS2RrGbi-91" value="write enable" style="edgeLabel;html=1;align=center;verticalAlign=middle;resizable=0;points=[];" parent="LVgz9WwHuPlELS2RrGbi-87" vertex="1" connectable="0">
                    <mxGeometry x="0.0063" y="1" relative="1" as="geometry">
                        <mxPoint x="19" as="offset"/>
                    </mxGeometry>
                </mxCell>
                <mxCell id="LVgz9WwHuPlELS2RrGbi-88" value="" style="endArrow=classic;html=1;rounded=0;exitX=1.001;exitY=0.333;exitDx=0;exitDy=0;exitPerimeter=0;entryX=0;entryY=0.333;entryDx=0;entryDy=0;entryPerimeter=0;fillColor=#6d8764;strokeColor=#3A5431;" parent="1" edge="1">
                    <mxGeometry width="50" height="50" relative="1" as="geometry">
                        <mxPoint x="720" y="340" as="sourcePoint"/>
                        <mxPoint x="960" y="340" as="targetPoint"/>
                    </mxGeometry>
                </mxCell>
                <mxCell id="LVgz9WwHuPlELS2RrGbi-92" value="write address" style="edgeLabel;html=1;align=center;verticalAlign=middle;resizable=0;points=[];" parent="LVgz9WwHuPlELS2RrGbi-88" vertex="1" connectable="0">
                    <mxGeometry x="0.0658" y="1" relative="1" as="geometry">
                        <mxPoint x="12" as="offset"/>
                    </mxGeometry>
                </mxCell>
                <mxCell id="LVgz9WwHuPlELS2RrGbi-89" value="" style="endArrow=classic;html=1;rounded=0;exitX=1.001;exitY=0.333;exitDx=0;exitDy=0;exitPerimeter=0;entryX=0;entryY=0.333;entryDx=0;entryDy=0;entryPerimeter=0;fillColor=#6d8764;strokeColor=#3A5431;" parent="1" edge="1">
                    <mxGeometry width="50" height="50" relative="1" as="geometry">
                        <mxPoint x="720" y="359.83" as="sourcePoint"/>
                        <mxPoint x="960" y="359.83" as="targetPoint"/>
                    </mxGeometry>
                </mxCell>
                <mxCell id="LVgz9WwHuPlELS2RrGbi-93" value="read address 1" style="edgeLabel;html=1;align=center;verticalAlign=middle;resizable=0;points=[];" parent="LVgz9WwHuPlELS2RrGbi-89" vertex="1" connectable="0">
                    <mxGeometry x="0.0802" y="1" relative="1" as="geometry">
                        <mxPoint x="10" y="1" as="offset"/>
                    </mxGeometry>
                </mxCell>
                <mxCell id="LVgz9WwHuPlELS2RrGbi-90" value="" style="endArrow=classic;html=1;rounded=0;exitX=1.001;exitY=0.333;exitDx=0;exitDy=0;exitPerimeter=0;entryX=0;entryY=0.333;entryDx=0;entryDy=0;entryPerimeter=0;fillColor=#6d8764;strokeColor=#3A5431;" parent="1" edge="1">
                    <mxGeometry width="50" height="50" relative="1" as="geometry">
                        <mxPoint x="720" y="380" as="sourcePoint"/>
                        <mxPoint x="960" y="380" as="targetPoint"/>
                    </mxGeometry>
                </mxCell>
                <mxCell id="LVgz9WwHuPlELS2RrGbi-94" value="read address 2" style="edgeLabel;html=1;align=center;verticalAlign=middle;resizable=0;points=[];" parent="LVgz9WwHuPlELS2RrGbi-90" vertex="1" connectable="0">
                    <mxGeometry x="0.0457" y="1" relative="1" as="geometry">
                        <mxPoint x="14" as="offset"/>
                    </mxGeometry>
                </mxCell>
                <mxCell id="LVgz9WwHuPlELS2RrGbi-95" value="" style="endArrow=classic;html=1;rounded=0;entryX=0;entryY=0.75;entryDx=0;entryDy=0;fillColor=#76608a;strokeColor=#432D57;" parent="1" target="LVgz9WwHuPlELS2RrGbi-4" edge="1">
                    <mxGeometry width="50" height="50" relative="1" as="geometry">
                        <mxPoint x="640" y="240" as="sourcePoint"/>
                        <mxPoint x="690" y="190" as="targetPoint"/>
                        <Array as="points">
                            <mxPoint x="640" y="140"/>
                        </Array>
                    </mxGeometry>
                </mxCell>
                <mxCell id="LVgz9WwHuPlELS2RrGbi-102" value="read address 1" style="edgeLabel;html=1;align=center;verticalAlign=middle;resizable=0;points=[];" parent="LVgz9WwHuPlELS2RrGbi-95" vertex="1" connectable="0">
                    <mxGeometry x="0.5576" y="-2" relative="1" as="geometry">
                        <mxPoint x="-7" as="offset"/>
                    </mxGeometry>
                </mxCell>
                <mxCell id="LVgz9WwHuPlELS2RrGbi-97" value="" style="endArrow=classic;html=1;rounded=0;entryX=0;entryY=0.75;entryDx=0;entryDy=0;exitX=0.75;exitY=0;exitDx=0;exitDy=0;fillColor=#76608a;strokeColor=#432D57;" parent="1" source="LVgz9WwHuPlELS2RrGbi-1" edge="1">
                    <mxGeometry width="50" height="50" relative="1" as="geometry">
                        <mxPoint x="640" y="200" as="sourcePoint"/>
                        <mxPoint x="960" y="100" as="targetPoint"/>
                        <Array as="points">
                            <mxPoint x="600" y="100"/>
                        </Array>
                    </mxGeometry>
                </mxCell>
                <mxCell id="LVgz9WwHuPlELS2RrGbi-100" value="write enable" style="edgeLabel;html=1;align=center;verticalAlign=middle;resizable=0;points=[];" parent="LVgz9WwHuPlELS2RrGbi-97" vertex="1" connectable="0">
                    <mxGeometry x="0.6398" relative="1" as="geometry">
                        <mxPoint x="-10" as="offset"/>
                    </mxGeometry>
                </mxCell>
                <mxCell id="LVgz9WwHuPlELS2RrGbi-99" value="" style="endArrow=classic;html=1;rounded=0;entryX=0;entryY=0.75;entryDx=0;entryDy=0;exitX=0.792;exitY=-0.001;exitDx=0;exitDy=0;exitPerimeter=0;fillColor=#76608a;strokeColor=#432D57;" parent="1" source="LVgz9WwHuPlELS2RrGbi-1" edge="1">
                    <mxGeometry width="50" height="50" relative="1" as="geometry">
                        <mxPoint x="640" y="220" as="sourcePoint"/>
                        <mxPoint x="960" y="120" as="targetPoint"/>
                        <Array as="points">
                            <mxPoint x="620" y="120"/>
                        </Array>
                    </mxGeometry>
                </mxCell>
                <mxCell id="LVgz9WwHuPlELS2RrGbi-101" value="write address" style="edgeLabel;html=1;align=center;verticalAlign=middle;resizable=0;points=[];" parent="LVgz9WwHuPlELS2RrGbi-99" vertex="1" connectable="0">
                    <mxGeometry x="0.5503" y="-1" relative="1" as="geometry">
                        <mxPoint x="3" as="offset"/>
                    </mxGeometry>
                </mxCell>
                <mxCell id="LVgz9WwHuPlELS2RrGbi-103" value="" style="endArrow=cross;html=1;rounded=0;exitX=-0.001;exitY=0.917;exitDx=0;exitDy=0;exitPerimeter=0;endFill=0;" parent="1" source="LVgz9WwHuPlELS2RrGbi-4" edge="1">
                    <mxGeometry width="50" height="50" relative="1" as="geometry">
                        <mxPoint x="840" y="230" as="sourcePoint"/>
                        <mxPoint x="870" y="180" as="targetPoint"/>
                    </mxGeometry>
                </mxCell>
                <mxCell id="LVgz9WwHuPlELS2RrGbi-104" value="" style="endArrow=classic;html=1;rounded=0;entryX=0;entryY=0.5;entryDx=0;entryDy=0;exitX=0.917;exitY=1.001;exitDx=0;exitDy=0;exitPerimeter=0;" parent="1" source="LVgz9WwHuPlELS2RrGbi-1" target="LVgz9WwHuPlELS2RrGbi-5" edge="1">
                    <mxGeometry width="50" height="50" relative="1" as="geometry">
                        <mxPoint x="710" y="720" as="sourcePoint"/>
                        <mxPoint x="760" y="670" as="targetPoint"/>
                        <Array as="points">
                            <mxPoint x="680" y="700"/>
                        </Array>
                    </mxGeometry>
                </mxCell>
                <mxCell id="LVgz9WwHuPlELS2RrGbi-105" value="Command" style="edgeLabel;html=1;align=center;verticalAlign=middle;resizable=0;points=[];" parent="LVgz9WwHuPlELS2RrGbi-104" vertex="1" connectable="0">
                    <mxGeometry x="0.7563" y="1" relative="1" as="geometry">
                        <mxPoint x="-49" y="1" as="offset"/>
                    </mxGeometry>
                </mxCell>
                <mxCell id="LVgz9WwHuPlELS2RrGbi-106" value="" style="endArrow=classic;html=1;rounded=0;exitX=0.5;exitY=0;exitDx=0;exitDy=0;" parent="1" source="LVgz9WwHuPlELS2RrGbi-68" edge="1">
                    <mxGeometry width="50" height="50" relative="1" as="geometry">
                        <mxPoint x="670" y="1000" as="sourcePoint"/>
                        <mxPoint x="760" y="1000" as="targetPoint"/>
                    </mxGeometry>
                </mxCell>
                <mxCell id="LVgz9WwHuPlELS2RrGbi-107" value="data out" style="edgeLabel;html=1;align=center;verticalAlign=middle;resizable=0;points=[];" parent="LVgz9WwHuPlELS2RrGbi-106" vertex="1" connectable="0">
                    <mxGeometry x="0.6044" y="1" relative="1" as="geometry">
                        <mxPoint x="-1" y="48" as="offset"/>
                    </mxGeometry>
                </mxCell>
                <mxCell id="LVgz9WwHuPlELS2RrGbi-108" value="" style="endArrow=classic;html=1;rounded=0;exitX=1;exitY=0.75;exitDx=0;exitDy=0;entryX=0.875;entryY=1;entryDx=0;entryDy=0;entryPerimeter=0;fillColor=#6a00ff;strokeColor=#3700CC;" parent="1" source="LVgz9WwHuPlELS2RrGbi-5" target="LVgz9WwHuPlELS2RrGbi-1" edge="1">
                    <mxGeometry width="50" height="50" relative="1" as="geometry">
                        <mxPoint x="700" y="710" as="sourcePoint"/>
                        <mxPoint x="750" y="660" as="targetPoint"/>
                        <Array as="points">
                            <mxPoint x="1260" y="790"/>
                            <mxPoint x="1260" y="900"/>
                            <mxPoint x="920" y="900"/>
                            <mxPoint x="920" y="720"/>
                            <mxPoint x="660" y="720"/>
                        </Array>
                    </mxGeometry>
                </mxCell>
                <mxCell id="LVgz9WwHuPlELS2RrGbi-109" value="Status&amp;nbsp;" style="edgeLabel;html=1;align=center;verticalAlign=middle;resizable=0;points=[];" parent="LVgz9WwHuPlELS2RrGbi-108" vertex="1" connectable="0">
                    <mxGeometry x="0.2553" y="-1" relative="1" as="geometry">
                        <mxPoint as="offset"/>
                    </mxGeometry>
                </mxCell>
                <mxCell id="LVgz9WwHuPlELS2RrGbi-110" value="memory interface" style="shape=curlyBracket;whiteSpace=wrap;html=1;rounded=1;labelPosition=left;verticalLabelPosition=middle;align=right;verticalAlign=middle;rotation=-90;horizontal=1;direction=east;" parent="1" vertex="1">
                    <mxGeometry x="899.75" y="566.5" width="20" height="1027.5" as="geometry"/>
                </mxCell>
            </root>
        </mxGraphModel>
    </diagram>
</mxfile>